<svg width="1200" height="1500" viewBox="0 0 1200 1500" fill="none" xmlns="http://www.w3.org/2000/svg">
  <defs>
    <linearGradient id="bg" x1="0" y1="0" x2="0" y2="1500" gradientUnits="userSpaceOnUse">
      <stop stop-color="#15151a"/>
      <stop offset="1" stop-color="#0b0b0e"/>
    </linearGradient>
    <radialGradient id="glow" cx="600" cy="500" r="640" gradientUnits="userSpaceOnUse">
      <stop stop-color="#34d399" stop-opacity="0.5"/>
      <stop offset="1" stop-color="#34d399" stop-opacity="0"/>
    </radialGradient>
  </defs>
  <rect width="1200" height="1500" fill="url(#bg)"/>
  <rect width="1200" height="1500" fill="url(#glow)"/>
  <rect x="48" y="48" width="1104" height="1404" rx="56" fill="none" stroke="#ffffff" stroke-opacity="0.12" stroke-width="3" stroke-dasharray="14 18"/>
  <g transform="translate(600 660) scale(8)" fill="none" stroke="#ffffff" stroke-opacity="0.85" stroke-width="1.5" stroke-linecap="round" stroke-linejoin="round">
    <g transform="translate(-12 -12)">
      <path d="M9 3l-1.7 2.2H4.5A2.5 2.5 0 0 0 2 7.7v9.8A2.5 2.5 0 0 0 4.5 20h15a2.5 2.5 0 0 0 2.5-2.5V7.7a2.5 2.5 0 0 0-2.5-2.5h-2.8L15 3z"/>
      <circle cx="12" cy="13" r="3.6"/>
    </g>
  </g>
  <text x="600" y="950" text-anchor="middle" font-family="system-ui, -apple-system, Segoe UI, Roboto, sans-serif" font-size="46" font-weight="600" fill="#ffffff" fill-opacity="0.7">Add your photo here</text>
</svg>
